<svg
   width="400mm"
   height="232mm"
   viewBox="0 0 242.02936 140.44511"
   version="1.1"
   id="svg1"
   xmlns="http://www.w3.org/2000/svg"
   xmlns:svg="http://www.w3.org/2000/svg">
  
  <!-- Define the gradient -->
  <defs>
    <linearGradient id="logoGradient" x1="0%" y1="0%" x2="100%" y2="100%">
      <stop offset="0%" style="stop-color:#6366f1;stop-opacity:1" />
      <stop offset="50%" style="stop-color:#8b5cf6;stop-opacity:1" />
      <stop offset="100%" style="stop-color:#ec4899;stop-opacity:1" />
    </linearGradient>
  </defs>
  
  <g
     id="layer1"
     transform="translate(15.175049,-60.534709)">
    <path
       style="fill:url(#logoGradient);stroke-width:0.264583"
       d="m 118.49392,189.77459 c -0.95954,-0.51664 -2.5259,-1.76384 -3.6302,-2.52935 -5.05149,-3.06151 0.32106,-7.50155 2.75719,-10.97618 2.67617,-3.81625 3.04967,-4.3949 4.4934,-6.96139 2.40364,-4.63124 3.06551,-2.22127 6.89695,-0.004 41.54888,24.04544 86.81531,-6.73942 74.42658,-55.94062 C 199.66923,98.396299 183.5888,88.948518 182.93245,88.540703 149.85228,67.986708 121.534,100.80794 108.87152,119.60115 c -0.11446,0.16988 -32.610277,48.31682 -74.69745,17.5112 -0.84709,-0.62003 -2.999825,-2.62096 -4.783854,-4.44652 l -3.243694,-3.3192 -0.294283,-0.84418 -0.294285,-0.84418 0.400775,-0.40078 0.400772,-0.40077 1.10549,0.16918 c 0.60802,0.0931 1.403146,0.31571 1.766948,0.4948 1.291125,0.6356 3.863941,1.39418 5.820834,1.71625 1.091406,0.17963 2.639218,0.48 3.439583,0.66748 13.651696,1.8896 24.61178,1.94715 38.373425,-7.02446 6.368878,-3.74916 11.836117,-8.88399 16.313095,-14.80848 0.658682,-0.9697 2.901124,-3.62234 4.473371,-5.29167 0.753819,-0.80037 1.680802,-1.93146 2.059961,-2.51354 0.379162,-0.582091 1.352982,-1.891771 2.164052,-2.91042 0.81106,-1.018646 2.13525,-2.727568 2.94264,-3.797604 3.94211,-5.224515 14.11247,-15.253504 20.1922,-19.911547 3.75355,-2.875817 11.13606,-7.114831 12.39093,-7.114831 0.13952,0 1.11334,-0.365826 2.16406,-0.812948 2.13857,-0.910039 6.96594,-2.495542 8.75028,-2.873936 0.64278,-0.13631 1.64494,-0.386482 2.22703,-0.555932 3.02446,-0.880459 11.97051,-1.155943 19.05,-0.586623 5.67704,0.456538 13.12888,2.560905 22.62187,7.93487 8.1832,4.914035 14.86653,10.73877 20.53515,18.325819 18.6639,24.844542 14.89132,46.112202 10.57531,63.896872 -9.20317,37.92284 -56.70012,63.82988 -104.83181,37.91459 z m -84.538509,8.43444 C 18.640772,193.57826 6.4269018,184.04922 -3.5518982,168.94648 c -3.550267,-5.37326 -7.9299978,-14.84587 -8.5117198,-18.40939 -3.196332,-14.47887 -5.440059,-29.86064 1.114357,-43.8511 0.126015,-0.25269 0.229118,-0.64673 0.229118,-0.87566 0,-1.03921 4.8644698,-10.739459 7.0260888,-14.010744 4.17010599,-6.310825 10.72845,-13.246867 16.8470932,-17.817321 3.737165,-2.791558 10.495721,-6.706402 13.592648,-7.873445 22.777757,-8.583533 48.587143,-9.466543 68.405446,13.462685 3.009918,3.173656 4.756277,3.679249 2.051793,7.616907 -2.69262,3.407794 -4.979606,7.161403 -7.945588,10.345582 -2.423959,1.878385 -3.110024,0.466965 -4.900232,-1.706208 -3.477958,-4.594387 -7.47386,-7.982585 -12.52725,-10.514428 -15.226075,-8.439304 -41.458478,-6.898608 -57.463745,16.357912 -15.8270972,22.99751 -8.8264952,46.69679 -0.773181,57.72936 15.817389,21.66887 49.470891,34.25747 80.329628,-2.61774 8.487422,-9.19415 16.237452,-19.21294 25.751752,-27.409 3.89105,-3.17714 5.23151,-4.17058 6.65971,-4.93567 0.80036,-0.42876 2.11313,-1.16891 2.91725,-1.64479 2.2089,-1.3072 5.66789,-2.69044 8.32754,-3.33015 5.40201,-1.29933 5.3153,-1.28522 9.84942,-1.60258 14.20125,-1.02181 23.01224,5.69914 33.47751,14.90295 5.36554,4.74643 4.34237,5.954 -2.5811,3.48337 -1.50489,-0.53702 -3.50639,-1.43156 -7.80521,-1.85871 -20.60566,-2.04743 -35.01412,4.43114 -53.04895,25.95063 -8.46711,9.19905 -15.53867,19.95018 -25.895255,27.23981 -0.467286,0.29104 -1.26139,0.84013 -1.764678,1.22018 -0.918668,0.69374 -5.10422,3.18241 -6.906212,4.10635 -18.629873,10.07106 -35.684301,9.31464 -48.948924,5.30375 z"
       id="path1" />
  </g>
</svg>
